<?xml version="1.0" encoding="UTF-8"?>
<svg width="512" height="512" viewBox="0 0 512 512" xmlns="http://www.w3.org/2000/svg">
  <defs>
    <linearGradient id="grad1" x1="0%" y1="0%" x2="100%" y2="100%">
      <stop offset="0%" style="stop-color:#1e88e5;stop-opacity:1" />
      <stop offset="100%" style="stop-color:#1565c0;stop-opacity:1" />
    </linearGradient>
  </defs>
  <circle cx="256" cy="256" r="240" fill="url(#grad1)" />
  <g transform="translate(128, 120) scale(0.5)">
    <!-- Book -->
    <path d="M128,64 L384,64 C406,64 424,82 424,104 L424,408 C424,430 406,448 384,448 L128,448 C106,448 88,430 88,408 L88,104 C88,82 106,64 128,64 Z" fill="#ffffff" />
    <!-- Pages -->
    <path d="M368,64 L368,448 L144,448 C122,448 104,430 104,408 L104,104 C104,82 122,64 144,64 L368,64 Z" fill="#f5f5f5" />
    <!-- Text lines -->
    <rect x="144" y="120" width="180" height="16" rx="8" fill="#e0e0e0" />
    <rect x="144" y="156" width="220" height="16" rx="8" fill="#e0e0e0" />
    <rect x="144" y="192" width="200" height="16" rx="8" fill="#e0e0e0" />
    <rect x="144" y="228" width="180" height="16" rx="8" fill="#e0e0e0" />
    <rect x="144" y="264" width="160" height="16" rx="8" fill="#e0e0e0" />
  </g>
  <g transform="translate(244, 180)">
    <!-- Lightbulb -->
    <path d="M32,0 C14.4,0 0,14.4 0,32 C0,43.2 6.4,52.8 16,57.6 L16,76 C16,84 22.4,90.4 30.4,90.4 L33.6,90.4 C41.6,90.4 48,84 48,76 L48,57.6 C57.6,52.8 64,43.2 64,32 C64,14.4 49.6,0 32,0 Z" fill="#ffeb3b" />
    <path d="M32,0 C14.4,0 0,14.4 0,32 C0,43.2 6.4,52.8 16,57.6 L16,76 C16,84 22.4,90.4 30.4,90.4 L32,90.4 L32,0 Z" fill="#fdd835" />
    <!-- Glow effect -->
    <circle cx="32" cy="32" r="28" fill="#fff176" opacity="0.3" />
  </g>
  <g transform="translate(160, 160)">
    <!-- Letters K & S -->
    <path d="M24,16 L40,16 L40,64 L24,64 L24,44 L12,64 L-6,64 L14,36 L-4,16 L14,16 L24,36 L24,16 Z" fill="#ffffff" />
    <path d="M68,16 C85,16 94,25 94,37 C94,43 90,49 84,51 C91,54 96,59 96,67 C96,82 84,91 68,91 C52,91 40,82 40,67 C40,59 45,54 52,51 C46,49 42,43 42,37 C42,25 51,16 68,16 Z M68,59 C62,59 58,63 58,68 C58,73 62,77 68,77 C74,77 78,73 78,68 C78,63 74,59 68,59 Z M68,30 C62,30 59,33 59,38 C59,43 62,46 68,46 C74,46 77,43 77,38 C77,33 74,30 68,30 Z" fill="#ffffff" />
  </g>
</svg>